<svg xmlns="http://www.w3.org/2000/svg" width="512" height="128" viewBox="0 0 512 128" shape-rendering="crispEdges"><g transform="scale(2)"><ellipse cx="32" cy="57" rx="17" ry="3" fill="#10182b" opacity=".5"/><path d="M21 29 L43 29 L48 49 L16 49 Z" fill="#10182b"/><path d="M24 31 L40 31 L44 46 L20 46 Z" fill="#a8d18d"/><rect x="26" y="13" width="12" height="14" fill="#10182b"/><rect x="28" y="15" width="8" height="9" fill="#e89b72"/><rect x="18" y="32" width="6" height="14" fill="#79b68a"/><rect x="40" y="32" width="6" height="14" fill="#79b68a"/><rect x="24" y="47" width="6" height="11" fill="#10182b"/><rect x="35" y="47" width="6" height="11" fill="#10182b"/><rect x="31" y="19" width="2" height="2" fill="#f4f0d0"/><ellipse cx="96" cy="57" rx="17" ry="3" fill="#10182b" opacity=".5"/><path d="M85 29 L107 29 L112 49 L80 49 Z" fill="#10182b"/><path d="M88 31 L104 31 L108 46 L84 46 Z" fill="#a8d18d"/><rect x="90" y="13" width="12" height="14" fill="#10182b"/><rect x="92" y="15" width="8" height="9" fill="#e89b72"/><rect x="84" y="32" width="6" height="14" fill="#79b68a"/><rect x="102" y="32" width="6" height="14" fill="#79b68a"/><rect x="89" y="47" width="6" height="11" fill="#10182b"/><rect x="98" y="47" width="6" height="11" fill="#10182b"/><rect x="95" y="19" width="2" height="2" fill="#f4f0d0"/><ellipse cx="160" cy="57" rx="17" ry="3" fill="#10182b" opacity=".5"/><path d="M149 29 L171 29 L176 49 L144 49 Z" fill="#10182b"/><path d="M152 31 L168 31 L172 46 L148 46 Z" fill="#a8d18d"/><rect x="154" y="13" width="12" height="14" fill="#10182b"/><rect x="156" y="15" width="8" height="9" fill="#e89b72"/><rect x="146" y="32" width="6" height="14" fill="#79b68a"/><rect x="168" y="32" width="6" height="14" fill="#79b68a"/><rect x="152" y="47" width="6" height="11" fill="#10182b"/><rect x="163" y="47" width="6" height="11" fill="#10182b"/><rect x="159" y="19" width="2" height="2" fill="#f4f0d0"/><ellipse cx="224" cy="57" rx="17" ry="3" fill="#10182b" opacity=".5"/><path d="M213 29 L235 29 L240 49 L208 49 Z" fill="#10182b"/><path d="M216 31 L232 31 L236 46 L212 46 Z" fill="#a8d18d"/><rect x="218" y="13" width="12" height="14" fill="#10182b"/><rect x="220" y="15" width="8" height="9" fill="#e89b72"/><rect x="212" y="32" width="6" height="14" fill="#79b68a"/><rect x="230" y="32" width="6" height="14" fill="#79b68a"/><rect x="217" y="47" width="6" height="11" fill="#10182b"/><rect x="226" y="47" width="6" height="11" fill="#10182b"/><rect x="223" y="19" width="2" height="2" fill="#f4f0d0"/></g><g opacity=".9"><path d="M16 110 H496" stroke="#79b68a" stroke-width="4"/><path d="M256 18V108" stroke="#263a5a" stroke-width="2" opacity=".35"/><rect x="293" y="89" width="2" height="3" fill="#263a5a" opacity="0.38"/><rect x="155" y="63" width="3" height="2" fill="#9d4969" opacity="0.47"/><rect x="490" y="38" width="2" height="4" fill="#5fcde4" opacity="0.56"/><rect x="352" y="100" width="2" height="3" fill="#263a5a" opacity="0.65"/><rect x="214" y="74" width="4" height="2" fill="#9d4969" opacity="0.74"/><rect x="76" y="49" width="3" height="2" fill="#5fcde4" opacity="0.83"/><rect x="411" y="23" width="2" height="3" fill="#263a5a" opacity="0.42"/><rect x="273" y="85" width="2" height="2" fill="#9d4969" opacity="0.51"/><rect x="135" y="60" width="3" height="2" fill="#5fcde4" opacity="0.60"/><rect x="470" y="34" width="2" height="4" fill="#263a5a" opacity="0.69"/><rect x="332" y="96" width="2" height="3" fill="#9d4969" opacity="0.78"/><rect x="194" y="71" width="4" height="2" fill="#5fcde4" opacity="0.37"/><rect x="56" y="45" width="3" height="2" fill="#263a5a" opacity="0.46"/><rect x="391" y="20" width="2" height="3" fill="#9d4969" opacity="0.55"/><rect x="253" y="81" width="4" height="2" fill="#5fcde4" opacity="0.64"/><rect x="115" y="56" width="3" height="2" fill="#263a5a" opacity="0.73"/><rect x="450" y="31" width="2" height="4" fill="#9d4969" opacity="0.82"/><rect x="312" y="92" width="2" height="3" fill="#5fcde4" opacity="0.41"/></g></svg>