<svg xmlns="http://www.w3.org/2000/svg" width="128" height="128" viewBox="0 0 128 128" shape-rendering="crispEdges"><g transform="scale(2)"><path d="M12 48 L23 13 L49 13 L53 19 L43 50 Z" fill="#10182b"/><path d="M18 45 L27 17 L44 17 L47 21 L39 45 Z" fill="#5fcde4"/><rect x="26" y="20" width="4" height="15" fill="#b9e6df"/></g><g opacity=".9"><path d="M16 110 H112" stroke="#f4f0d0" stroke-width="4"/><path d="M64 18V108" stroke="#f0d89a" stroke-width="2" opacity=".35"/><rect x="75" y="94" width="2" height="3" fill="#f0d89a" opacity="0.41"/><rect x="49" y="69" width="3" height="2" fill="#3d5c78" opacity="0.50"/><rect x="23" y="43" width="3" height="2" fill="#79b68a" opacity="0.59"/><rect x="86" y="18" width="2" height="3" fill="#f0d89a" opacity="0.68"/><rect x="60" y="80" width="4" height="2" fill="#3d5c78" opacity="0.77"/><rect x="34" y="54" width="3" height="2" fill="#79b68a" opacity="0.36"/><rect x="97" y="29" width="2" height="4" fill="#f0d89a" opacity="0.45"/><rect x="71" y="91" width="2" height="3" fill="#3d5c78" opacity="0.54"/><rect x="45" y="65" width="3" height="2" fill="#79b68a" opacity="0.63"/><rect x="19" y="40" width="2" height="4" fill="#f0d89a" opacity="0.72"/><rect x="82" y="101" width="2" height="3" fill="#3d5c78" opacity="0.81"/><rect x="56" y="76" width="4" height="2" fill="#79b68a" opacity="0.40"/><rect x="30" y="51" width="3" height="2" fill="#f0d89a" opacity="0.49"/><rect x="93" y="25" width="2" height="3" fill="#3d5c78" opacity="0.58"/><rect x="67" y="87" width="2" height="3" fill="#79b68a" opacity="0.67"/><rect x="41" y="61" width="3" height="2" fill="#f0d89a" opacity="0.76"/><rect x="104" y="36" width="2" height="4" fill="#3d5c78" opacity="0.35"/><rect x="79" y="98" width="2" height="3" fill="#79b68a" opacity="0.44"/></g></svg>