<svg xmlns="http://www.w3.org/2000/svg" width="128" height="128" viewBox="0 0 128 128" shape-rendering="crispEdges"><g transform="scale(2)"><path d="M12 48 L23 13 L49 13 L53 19 L43 50 Z" fill="#10182b"/><path d="M18 45 L27 17 L44 17 L47 21 L39 45 Z" fill="#b9e6df"/><rect x="26" y="20" width="4" height="15" fill="#f4f0d0"/></g><g opacity=".9"><path d="M16 110 H112" stroke="#9d4969" stroke-width="4"/><path d="M64 18V108" stroke="#d5c276" stroke-width="2" opacity=".35"/><rect x="43" y="63" width="3" height="2" fill="#d5c276" opacity="0.73"/><rect x="106" y="37" width="2" height="4" fill="#263a5a" opacity="0.82"/><rect x="80" y="99" width="2" height="3" fill="#6eaa6d" opacity="0.41"/><rect x="54" y="73" width="4" height="2" fill="#d5c276" opacity="0.50"/><rect x="28" y="48" width="3" height="2" fill="#263a5a" opacity="0.59"/><rect x="91" y="23" width="2" height="3" fill="#6eaa6d" opacity="0.68"/><rect x="65" y="84" width="2" height="2" fill="#d5c276" opacity="0.77"/><rect x="39" y="59" width="3" height="2" fill="#263a5a" opacity="0.36"/><rect x="102" y="33" width="2" height="4" fill="#6eaa6d" opacity="0.45"/><rect x="76" y="95" width="2" height="3" fill="#d5c276" opacity="0.54"/><rect x="50" y="70" width="4" height="2" fill="#263a5a" opacity="0.63"/><rect x="24" y="44" width="3" height="2" fill="#6eaa6d" opacity="0.72"/><rect x="87" y="19" width="2" height="3" fill="#d5c276" opacity="0.81"/><rect x="61" y="81" width="4" height="2" fill="#263a5a" opacity="0.40"/><rect x="35" y="55" width="3" height="2" fill="#6eaa6d" opacity="0.49"/><rect x="98" y="30" width="2" height="4" fill="#d5c276" opacity="0.58"/><rect x="72" y="91" width="2" height="3" fill="#263a5a" opacity="0.67"/><rect x="46" y="66" width="3" height="2" fill="#6eaa6d" opacity="0.76"/></g></svg>