<svg xmlns="http://www.w3.org/2000/svg" width="256" height="64" viewBox="0 0 256 64" shape-rendering="crispEdges"><rect width="256" height="64" fill="#4d7c83"/><rect x="5" y="40" width="54" height="19" fill="#79b68a"/><path d="M5 40 L18 28 L31 36 L43 20 L59 33 V54 H5Z" fill="#d95d75"/><rect x="12" y="30" width="12" height="20" fill="#d5c276"/><rect x="39" y="27" width="11" height="25" fill="#10182b"/><path d="M28 12 V54 M20 20 H36" stroke="#f4f0d0" stroke-width="2" opacity=".6"/><rect x="69" y="40" width="54" height="19" fill="#79b68a"/><path d="M69 40 L82 28 L95 36 L107 20 L123 33 V54 H69Z" fill="#d95d75"/><rect x="76" y="30" width="12" height="20" fill="#e89b72"/><rect x="103" y="27" width="11" height="25" fill="#10182b"/><path d="M92 12 V54 M84 20 H100" stroke="#f4f0d0" stroke-width="2" opacity=".6"/><rect x="133" y="40" width="54" height="19" fill="#79b68a"/><path d="M133 40 L146 28 L159 36 L171 20 L187 33 V54 H133Z" fill="#d95d75"/><rect x="140" y="30" width="12" height="20" fill="#d95d75"/><rect x="167" y="27" width="11" height="25" fill="#10182b"/><path d="M156 12 V54 M148 20 H164" stroke="#f4f0d0" stroke-width="2" opacity=".6"/><rect x="197" y="40" width="54" height="19" fill="#79b68a"/><path d="M197 40 L210 28 L223 36 L235 20 L251 33 V54 H197Z" fill="#d95d75"/><rect x="204" y="30" width="12" height="20" fill="#f4f0d0"/><rect x="231" y="27" width="11" height="25" fill="#10182b"/><path d="M220 12 V54 M212 20 H228" stroke="#f4f0d0" stroke-width="2" opacity=".6"/></svg>