<svg xmlns="http://www.w3.org/2000/svg" width="128" height="128" viewBox="0 0 128 128" shape-rendering="crispEdges"><g transform="scale(2)"><rect x="29" y="34" width="6" height="25" fill="#10182b"/><rect x="31" y="35" width="3" height="22" fill="#b9e6df"/><path d="M32 8 L14 27 L22 24 L11 38 L27 31 L17 45 L32 36 L48 45 L38 31 L54 38 L43 24 L51 27 Z" fill="#10182b"/><path d="M32 11 L19 27 L29 24 L19 37 L31 30 L23 41 L32 34 L43 41 L36 30 L47 37 L36 24 L46 27 Z" fill="#10182b"/></g><g opacity=".9"><path d="M16 110 H112" stroke="#f4f0d0" stroke-width="4"/><path d="M64 18V108" stroke="#f0d89a" stroke-width="2" opacity=".35"/><rect x="30" y="50" width="3" height="2" fill="#f0d89a" opacity="0.66"/><rect x="93" y="25" width="2" height="3" fill="#3d5c78" opacity="0.75"/><rect x="67" y="86" width="2" height="3" fill="#79b68a" opacity="0.84"/><rect x="41" y="61" width="3" height="2" fill="#f0d89a" opacity="0.43"/><rect x="104" y="36" width="2" height="4" fill="#3d5c78" opacity="0.52"/><rect x="78" y="97" width="2" height="3" fill="#79b68a" opacity="0.61"/><rect x="52" y="72" width="4" height="2" fill="#f0d89a" opacity="0.70"/><rect x="26" y="47" width="3" height="2" fill="#3d5c78" opacity="0.79"/><rect x="89" y="21" width="2" height="3" fill="#79b68a" opacity="0.38"/><rect x="63" y="83" width="4" height="2" fill="#f0d89a" opacity="0.47"/><rect x="37" y="57" width="3" height="2" fill="#3d5c78" opacity="0.56"/><rect x="100" y="32" width="2" height="4" fill="#79b68a" opacity="0.65"/><rect x="74" y="94" width="2" height="3" fill="#f0d89a" opacity="0.74"/><rect x="48" y="68" width="3" height="2" fill="#3d5c78" opacity="0.83"/><rect x="22" y="43" width="3" height="4" fill="#79b68a" opacity="0.42"/><rect x="85" y="104" width="2" height="3" fill="#f0d89a" opacity="0.51"/><rect x="59" y="79" width="4" height="2" fill="#3d5c78" opacity="0.60"/><rect x="33" y="54" width="3" height="2" fill="#79b68a" opacity="0.69"/></g></svg>