<svg xmlns="http://www.w3.org/2000/svg" width="128" height="128" viewBox="0 0 128 128" shape-rendering="crispEdges"><rect width="128" height="128" fill="#263a5a"/><rect y="12" width="128" height="58" fill="#3d5c78"/><rect y="70" width="128" height="58" fill="#6eaa6d"/><path d="M0 70H128 M0 74H128" stroke="#e89b72" stroke-width="4"/><path d="M12 12V70 M112 12V70 M0 18H128" stroke="#e89b72" stroke-width="4" opacity=".8"/><rect x="18" y="24" width="24" height="28" fill="#a8d18d" stroke="#e89b72" stroke-width="4"/><path d="M30 24V52 M18 38H42" stroke="#5fcde4" stroke-width="3" opacity=".8"/><rect x="84" y="30" width="22" height="36" fill="#d5c276" stroke="#e89b72" stroke-width="4"/><rect x="40" y="74" width="48" height="16" fill="#e89b72" stroke="#4d7c83" stroke-width="4"/><rect x="46" y="90" width="6" height="28" fill="#e89b72"/><rect x="76" y="90" width="6" height="28" fill="#e89b72"/><rect x="47" y="102" width="5" height="3" fill="#4d7c83" opacity="0.77"/><rect x="14" y="90" width="4" height="2" fill="#79b68a" opacity="0.36"/><rect x="93" y="78" width="3" height="4" fill="#d95d75" opacity="0.45"/><rect x="60" y="107" width="5" height="3" fill="#4d7c83" opacity="0.54"/><rect x="28" y="95" width="4" height="2" fill="#79b68a" opacity="0.63"/><rect x="107" y="83" width="3" height="5" fill="#d95d75" opacity="0.72"/><rect x="74" y="112" width="2" height="4" fill="#4d7c83" opacity="0.81"/><rect x="42" y="100" width="5" height="3" fill="#79b68a" opacity="0.40"/><rect x="9" y="88" width="4" height="5" fill="#d95d75" opacity="0.49"/><rect x="88" y="117" width="2" height="4" fill="#4d7c83" opacity="0.58"/><rect x="56" y="105" width="5" height="3" fill="#79b68a" opacity="0.67"/><rect x="23" y="93" width="4" height="2" fill="#d95d75" opacity="0.76"/><rect x="102" y="82" width="3" height="5" fill="#4d7c83" opacity="0.35"/><rect x="70" y="110" width="2" height="4" fill="#79b68a" opacity="0.44"/><rect x="37" y="98" width="5" height="2" fill="#d95d75" opacity="0.53"/><rect x="116" y="87" width="3" height="5" fill="#4d7c83" opacity="0.62"/><rect x="84" y="115" width="2" height="4" fill="#79b68a" opacity="0.71"/><rect x="51" y="103" width="5" height="3" fill="#d95d75" opacity="0.80"/><rect x="18" y="91" width="4" height="2" fill="#4d7c83" opacity="0.39"/><rect x="98" y="80" width="3" height="5" fill="#79b68a" opacity="0.48"/><rect x="65" y="108" width="2" height="3" fill="#d95d75" opacity="0.57"/><rect x="32" y="96" width="4" height="2" fill="#4d7c83" opacity="0.66"/><rect x="112" y="85" width="3" height="5" fill="#79b68a" opacity="0.75"/><rect x="79" y="113" width="2" height="4" fill="#d95d75" opacity="0.84"/><rect x="46" y="101" width="5" height="3" fill="#4d7c83" opacity="0.43"/><rect x="13" y="90" width="4" height="2" fill="#79b68a" opacity="0.52"/><rect x="93" y="78" width="3" height="4" fill="#d95d75" opacity="0.61"/><rect x="60" y="106" width="5" height="3" fill="#4d7c83" opacity="0.70"/><rect x="27" y="95" width="4" height="2" fill="#79b68a" opacity="0.79"/><rect x="107" y="83" width="3" height="5" fill="#d95d75" opacity="0.38"/><rect x="74" y="111" width="2" height="4" fill="#4d7c83" opacity="0.47"/><rect x="41" y="100" width="5" height="3" fill="#79b68a" opacity="0.56"/><rect x="9" y="88" width="4" height="5" fill="#d95d75" opacity="0.65"/><rect x="88" y="116" width="2" height="4" fill="#4d7c83" opacity="0.74"/><rect x="55" y="105" width="5" height="3" fill="#79b68a" opacity="0.83"/><rect x="23" y="93" width="4" height="2" fill="#d95d75" opacity="0.43"/><rect x="102" y="81" width="3" height="5" fill="#4d7c83" opacity="0.52"/><rect x="69" y="110" width="2" height="4" fill="#79b68a" opacity="0.61"/><rect x="37" y="98" width="5" height="2" fill="#d95d75" opacity="0.70"/><rect x="116" y="86" width="3" height="5" fill="#4d7c83" opacity="0.79"/><rect x="83" y="115" width="2" height="4" fill="#79b68a" opacity="0.38"/><rect x="51" y="103" width="5" height="3" fill="#d95d75" opacity="0.47"/><rect x="18" y="91" width="4" height="2" fill="#4d7c83" opacity="0.56"/><rect x="97" y="80" width="3" height="5" fill="#79b68a" opacity="0.65"/><rect x="65" y="108" width="5" height="3" fill="#d95d75" opacity="0.74"/><rect x="32" y="96" width="4" height="2" fill="#4d7c83" opacity="0.83"/><rect x="111" y="85" width="3" height="5" fill="#79b68a" opacity="0.42"/><rect x="78" y="113" width="2" height="4" fill="#d95d75" opacity="0.51"/><rect x="46" y="101" width="5" height="3" fill="#4d7c83" opacity="0.60"/><rect x="13" y="90" width="4" height="2" fill="#79b68a" opacity="0.69"/><rect x="92" y="78" width="2" height="4" fill="#d95d75" opacity="0.78"/><rect x="60" y="106" width="5" height="3" fill="#4d7c83" opacity="0.37"/><rect x="27" y="95" width="4" height="2" fill="#79b68a" opacity="0.46"/><rect x="106" y="83" width="3" height="5" fill="#d95d75" opacity="0.55"/></svg>