<svg xmlns="http://www.w3.org/2000/svg" width="128" height="128" viewBox="0 0 128 128" shape-rendering="crispEdges"><g transform="scale(2)"><path d="M12 48 L23 13 L49 13 L53 19 L43 50 Z" fill="#10182b"/><path d="M18 45 L27 17 L44 17 L47 21 L39 45 Z" fill="#f4f0d0"/><rect x="26" y="20" width="4" height="15" fill="#9d4969"/></g><g opacity=".9"><path d="M16 110 H112" stroke="#d95d75" stroke-width="4"/><path d="M64 18V108" stroke="#a8d18d" stroke-width="2" opacity=".35"/><rect x="78" y="97" width="2" height="3" fill="#a8d18d" opacity="0.43"/><rect x="52" y="72" width="4" height="2" fill="#18243f" opacity="0.52"/><rect x="26" y="46" width="3" height="2" fill="#4d7c83" opacity="0.61"/><rect x="89" y="21" width="2" height="3" fill="#a8d18d" opacity="0.70"/><rect x="63" y="83" width="4" height="2" fill="#18243f" opacity="0.79"/><rect x="37" y="57" width="3" height="2" fill="#4d7c83" opacity="0.38"/><rect x="100" y="32" width="2" height="4" fill="#a8d18d" opacity="0.47"/><rect x="74" y="93" width="2" height="3" fill="#18243f" opacity="0.56"/><rect x="48" y="68" width="3" height="2" fill="#4d7c83" opacity="0.65"/><rect x="22" y="43" width="3" height="4" fill="#a8d18d" opacity="0.74"/><rect x="85" y="104" width="2" height="3" fill="#18243f" opacity="0.83"/><rect x="59" y="79" width="4" height="2" fill="#4d7c83" opacity="0.42"/><rect x="33" y="53" width="3" height="2" fill="#a8d18d" opacity="0.51"/><rect x="96" y="28" width="2" height="3" fill="#18243f" opacity="0.60"/><rect x="70" y="90" width="2" height="3" fill="#4d7c83" opacity="0.69"/><rect x="44" y="64" width="3" height="2" fill="#a8d18d" opacity="0.78"/><rect x="18" y="39" width="2" height="4" fill="#18243f" opacity="0.37"/><rect x="81" y="100" width="2" height="3" fill="#4d7c83" opacity="0.46"/></g></svg>