<svg xmlns="http://www.w3.org/2000/svg" width="512" height="128" viewBox="0 0 512 128" shape-rendering="crispEdges"><rect width="512" height="128" fill="#10182b"/><rect y="12" width="512" height="58" fill="#18243f"/><rect y="70" width="512" height="58" fill="#3d5c78"/><path d="M0 70H512 M0 74H512" stroke="#d5c276" stroke-width="4"/><path d="M12 12V70 M496 12V70 M0 18H512" stroke="#d5c276" stroke-width="4" opacity=".8"/><rect x="18" y="24" width="24" height="28" fill="#6eaa6d" stroke="#d5c276" stroke-width="4"/><path d="M30 24V52 M18 38H42" stroke="#f4f0d0" stroke-width="3" opacity=".8"/><rect x="468" y="30" width="22" height="36" fill="#79b68a" stroke="#d5c276" stroke-width="4"/><rect x="232" y="74" width="48" height="16" fill="#d5c276" stroke="#263a5a" stroke-width="4"/><rect x="238" y="90" width="6" height="28" fill="#d5c276"/><rect x="268" y="90" width="6" height="28" fill="#d5c276"/><rect x="52" y="91" width="4" height="2" fill="#263a5a" opacity="0.63"/><rect x="403" y="79" width="3" height="4" fill="#4d7c83" opacity="0.72"/><rect x="258" y="107" width="5" height="3" fill="#f0d89a" opacity="0.81"/><rect x="113" y="96" width="4" height="2" fill="#263a5a" opacity="0.40"/><rect x="465" y="84" width="3" height="5" fill="#4d7c83" opacity="0.49"/><rect x="320" y="112" width="2" height="4" fill="#f0d89a" opacity="0.58"/><rect x="175" y="101" width="5" height="3" fill="#263a5a" opacity="0.67"/><rect x="30" y="89" width="4" height="5" fill="#4d7c83" opacity="0.76"/><rect x="382" y="117" width="2" height="4" fill="#f0d89a" opacity="0.35"/><rect x="237" y="106" width="5" height="3" fill="#263a5a" opacity="0.44"/><rect x="92" y="94" width="4" height="2" fill="#4d7c83" opacity="0.53"/><rect x="444" y="82" width="3" height="5" fill="#f0d89a" opacity="0.62"/><rect x="299" y="111" width="2" height="4" fill="#263a5a" opacity="0.71"/><rect x="154" y="99" width="5" height="2" fill="#4d7c83" opacity="0.80"/><rect x="9" y="87" width="3" height="5" fill="#f0d89a" opacity="0.39"/><rect x="361" y="116" width="2" height="4" fill="#263a5a" opacity="0.49"/><rect x="216" y="104" width="5" height="3" fill="#4d7c83" opacity="0.58"/><rect x="71" y="92" width="4" height="2" fill="#f0d89a" opacity="0.67"/><rect x="422" y="81" width="3" height="5" fill="#263a5a" opacity="0.76"/><rect x="278" y="109" width="2" height="3" fill="#4d7c83" opacity="0.85"/><rect x="133" y="97" width="4" height="2" fill="#f0d89a" opacity="0.44"/><rect x="484" y="86" width="3" height="5" fill="#263a5a" opacity="0.53"/><rect x="339" y="114" width="2" height="4" fill="#4d7c83" opacity="0.62"/><rect x="195" y="102" width="5" height="3" fill="#f0d89a" opacity="0.71"/><rect x="50" y="91" width="4" height="2" fill="#263a5a" opacity="0.80"/><rect x="401" y="79" width="3" height="4" fill="#4d7c83" opacity="0.39"/><rect x="257" y="107" width="5" height="3" fill="#f0d89a" opacity="0.48"/><rect x="112" y="96" width="4" height="2" fill="#263a5a" opacity="0.57"/><rect x="463" y="84" width="3" height="5" fill="#4d7c83" opacity="0.66"/><rect x="318" y="112" width="2" height="4" fill="#f0d89a" opacity="0.75"/><rect x="174" y="101" width="5" height="3" fill="#263a5a" opacity="0.84"/><rect x="29" y="89" width="4" height="5" fill="#4d7c83" opacity="0.43"/><rect x="380" y="117" width="2" height="4" fill="#f0d89a" opacity="0.52"/><rect x="235" y="105" width="5" height="3" fill="#263a5a" opacity="0.61"/><rect x="91" y="94" width="4" height="2" fill="#4d7c83" opacity="0.70"/><rect x="442" y="82" width="3" height="5" fill="#f0d89a" opacity="0.79"/><rect x="297" y="110" width="2" height="4" fill="#263a5a" opacity="0.38"/><rect x="153" y="99" width="5" height="2" fill="#4d7c83" opacity="0.47"/><rect x="8" y="87" width="3" height="5" fill="#f0d89a" opacity="0.56"/><rect x="359" y="115" width="2" height="4" fill="#263a5a" opacity="0.65"/><rect x="214" y="104" width="5" height="3" fill="#4d7c83" opacity="0.74"/><rect x="70" y="92" width="4" height="2" fill="#f0d89a" opacity="0.83"/><rect x="421" y="80" width="3" height="5" fill="#263a5a" opacity="0.42"/><rect x="276" y="109" width="2" height="3" fill="#4d7c83" opacity="0.51"/><rect x="131" y="97" width="4" height="2" fill="#f0d89a" opacity="0.60"/><rect x="483" y="85" width="3" height="5" fill="#263a5a" opacity="0.69"/><rect x="338" y="114" width="2" height="4" fill="#4d7c83" opacity="0.78"/><rect x="193" y="102" width="5" height="3" fill="#f0d89a" opacity="0.37"/><rect x="48" y="90" width="4" height="2" fill="#263a5a" opacity="0.46"/><rect x="400" y="79" width="3" height="4" fill="#4d7c83" opacity="0.55"/><rect x="255" y="107" width="5" height="3" fill="#f0d89a" opacity="0.64"/><rect x="110" y="95" width="4" height="2" fill="#263a5a" opacity="0.73"/><rect x="462" y="84" width="3" height="5" fill="#4d7c83" opacity="0.82"/><rect x="317" y="112" width="2" height="4" fill="#f0d89a" opacity="0.41"/></svg>