<svg xmlns="http://www.w3.org/2000/svg" width="512" height="128" viewBox="0 0 512 128" shape-rendering="crispEdges"><g transform="scale(2)"><ellipse cx="32" cy="57" rx="17" ry="3" fill="#10182b" opacity=".5"/><path d="M21 29 L43 29 L48 49 L16 49 Z" fill="#10182b"/><path d="M24 31 L40 31 L44 46 L20 46 Z" fill="#e89b72"/><rect x="26" y="13" width="12" height="14" fill="#10182b"/><rect x="28" y="15" width="8" height="9" fill="#f4f0d0"/><rect x="18" y="32" width="6" height="14" fill="#f0d89a"/><rect x="40" y="32" width="6" height="14" fill="#f0d89a"/><rect x="24" y="47" width="6" height="11" fill="#10182b"/><rect x="35" y="47" width="6" height="11" fill="#10182b"/><rect x="31" y="19" width="2" height="2" fill="#f4f0d0"/><ellipse cx="96" cy="57" rx="17" ry="3" fill="#10182b" opacity=".5"/><path d="M85 29 L107 29 L112 49 L80 49 Z" fill="#10182b"/><path d="M88 31 L104 31 L108 46 L84 46 Z" fill="#e89b72"/><rect x="90" y="13" width="12" height="14" fill="#10182b"/><rect x="92" y="15" width="8" height="9" fill="#f4f0d0"/><rect x="84" y="32" width="6" height="14" fill="#f0d89a"/><rect x="102" y="32" width="6" height="14" fill="#f0d89a"/><rect x="89" y="47" width="6" height="11" fill="#10182b"/><rect x="98" y="47" width="6" height="11" fill="#10182b"/><rect x="95" y="19" width="2" height="2" fill="#f4f0d0"/><ellipse cx="160" cy="57" rx="17" ry="3" fill="#10182b" opacity=".5"/><path d="M149 29 L171 29 L176 49 L144 49 Z" fill="#10182b"/><path d="M152 31 L168 31 L172 46 L148 46 Z" fill="#e89b72"/><rect x="154" y="13" width="12" height="14" fill="#10182b"/><rect x="156" y="15" width="8" height="9" fill="#f4f0d0"/><rect x="146" y="32" width="6" height="14" fill="#f0d89a"/><rect x="168" y="32" width="6" height="14" fill="#f0d89a"/><rect x="152" y="47" width="6" height="11" fill="#10182b"/><rect x="163" y="47" width="6" height="11" fill="#10182b"/><rect x="159" y="19" width="2" height="2" fill="#f4f0d0"/><ellipse cx="224" cy="57" rx="17" ry="3" fill="#10182b" opacity=".5"/><path d="M213 29 L235 29 L240 49 L208 49 Z" fill="#10182b"/><path d="M216 31 L232 31 L236 46 L212 46 Z" fill="#e89b72"/><rect x="218" y="13" width="12" height="14" fill="#10182b"/><rect x="220" y="15" width="8" height="9" fill="#f4f0d0"/><rect x="212" y="32" width="6" height="14" fill="#f0d89a"/><rect x="230" y="32" width="6" height="14" fill="#f0d89a"/><rect x="217" y="47" width="6" height="11" fill="#10182b"/><rect x="226" y="47" width="6" height="11" fill="#10182b"/><rect x="223" y="19" width="2" height="2" fill="#f4f0d0"/></g><g opacity=".9"><path d="M16 110 H496" stroke="#f0d89a" stroke-width="4"/><path d="M256 18V108" stroke="#6eaa6d" stroke-width="2" opacity=".35"/><rect x="348" y="99" width="2" height="3" fill="#6eaa6d" opacity="0.44"/><rect x="210" y="73" width="4" height="2" fill="#5fcde4" opacity="0.53"/><rect x="72" y="48" width="3" height="2" fill="#263a5a" opacity="0.62"/><rect x="407" y="23" width="2" height="3" fill="#6eaa6d" opacity="0.71"/><rect x="269" y="84" width="2" height="2" fill="#5fcde4" opacity="0.80"/><rect x="131" y="59" width="3" height="2" fill="#263a5a" opacity="0.39"/><rect x="466" y="33" width="2" height="4" fill="#6eaa6d" opacity="0.48"/><rect x="328" y="95" width="2" height="3" fill="#5fcde4" opacity="0.57"/><rect x="190" y="70" width="4" height="2" fill="#263a5a" opacity="0.66"/><rect x="52" y="44" width="3" height="2" fill="#6eaa6d" opacity="0.75"/><rect x="387" y="19" width="2" height="3" fill="#5fcde4" opacity="0.84"/><rect x="249" y="81" width="4" height="2" fill="#263a5a" opacity="0.43"/><rect x="111" y="55" width="3" height="2" fill="#6eaa6d" opacity="0.52"/><rect x="446" y="30" width="2" height="4" fill="#5fcde4" opacity="0.61"/><rect x="308" y="91" width="2" height="3" fill="#263a5a" opacity="0.70"/><rect x="170" y="66" width="3" height="2" fill="#6eaa6d" opacity="0.79"/><rect x="32" y="41" width="3" height="4" fill="#5fcde4" opacity="0.38"/><rect x="367" y="102" width="2" height="3" fill="#263a5a" opacity="0.47"/></g></svg>