<svg xmlns="http://www.w3.org/2000/svg" width="128" height="128" viewBox="0 0 128 128" shape-rendering="crispEdges"><g transform="scale(2)"><ellipse cx="32" cy="57" rx="17" ry="3" fill="#10182b" opacity=".5"/><path d="M21 29 L43 29 L48 49 L16 49 Z" fill="#10182b"/><path d="M24 31 L40 31 L44 46 L20 46 Z" fill="#b9e6df"/><rect x="26" y="13" width="12" height="14" fill="#10182b"/><rect x="28" y="15" width="8" height="9" fill="#18243f"/><rect x="18" y="32" width="6" height="14" fill="#f4f0d0"/><rect x="40" y="32" width="6" height="14" fill="#f4f0d0"/><rect x="24" y="47" width="6" height="11" fill="#10182b"/><rect x="35" y="47" width="6" height="11" fill="#10182b"/><rect x="31" y="19" width="2" height="2" fill="#f4f0d0"/></g><g opacity=".9"><path d="M16 110 H112" stroke="#f4f0d0" stroke-width="4"/><path d="M64 18V108" stroke="#f0d89a" stroke-width="2" opacity=".35"/><rect x="43" y="63" width="3" height="2" fill="#f0d89a" opacity="0.73"/><rect x="106" y="38" width="2" height="4" fill="#3d5c78" opacity="0.82"/><rect x="80" y="100" width="2" height="3" fill="#79b68a" opacity="0.41"/><rect x="54" y="74" width="4" height="2" fill="#f0d89a" opacity="0.50"/><rect x="28" y="49" width="3" height="2" fill="#3d5c78" opacity="0.59"/><rect x="92" y="23" width="2" height="3" fill="#79b68a" opacity="0.68"/><rect x="66" y="85" width="2" height="2" fill="#f0d89a" opacity="0.77"/><rect x="40" y="60" width="3" height="2" fill="#3d5c78" opacity="0.36"/><rect x="103" y="34" width="2" height="4" fill="#79b68a" opacity="0.45"/><rect x="77" y="96" width="2" height="3" fill="#f0d89a" opacity="0.54"/><rect x="51" y="70" width="4" height="2" fill="#3d5c78" opacity="0.63"/><rect x="25" y="45" width="3" height="2" fill="#79b68a" opacity="0.72"/><rect x="88" y="20" width="2" height="3" fill="#f0d89a" opacity="0.81"/><rect x="62" y="81" width="4" height="2" fill="#3d5c78" opacity="0.40"/><rect x="36" y="56" width="3" height="2" fill="#79b68a" opacity="0.49"/><rect x="99" y="31" width="2" height="4" fill="#f0d89a" opacity="0.58"/><rect x="73" y="92" width="2" height="3" fill="#3d5c78" opacity="0.67"/><rect x="47" y="67" width="3" height="2" fill="#79b68a" opacity="0.76"/></g></svg>